<mxfile host="app.diagrams.net" agent="Mozilla/5.0 (Macintosh; Intel Mac OS X 10_15_7) AppleWebKit/537.36 (KHTML, like Gecko) Chrome/129.0.0.0 Safari/537.36" version="24.8.0">
  <diagram name="Page-1" id="p5XJKrXcuo0vuSfV6m7-">
    <mxGraphModel dx="661" dy="935" grid="1" gridSize="10" guides="1" tooltips="1" connect="1" arrows="1" fold="1" page="1" pageScale="1" pageWidth="827" pageHeight="1169" math="0" shadow="0">
      <root>
        <mxCell id="0" />
        <mxCell id="1" parent="0" />
        <mxCell id="urYJuttuOxQp-yrirRFU-1" value="Start" style="ellipse;whiteSpace=wrap;html=1;" vertex="1" parent="1">
          <mxGeometry x="120" y="150" width="120" height="80" as="geometry" />
        </mxCell>
        <mxCell id="urYJuttuOxQp-yrirRFU-5" value="" style="edgeStyle=orthogonalEdgeStyle;rounded=0;orthogonalLoop=1;jettySize=auto;html=1;" edge="1" parent="1" source="urYJuttuOxQp-yrirRFU-2" target="urYJuttuOxQp-yrirRFU-4">
          <mxGeometry relative="1" as="geometry" />
        </mxCell>
        <mxCell id="urYJuttuOxQp-yrirRFU-2" value="czytaj: a, b" style="shape=parallelogram;perimeter=parallelogramPerimeter;whiteSpace=wrap;html=1;fixedSize=1;" vertex="1" parent="1">
          <mxGeometry x="120" y="280" width="120" height="60" as="geometry" />
        </mxCell>
        <mxCell id="urYJuttuOxQp-yrirRFU-3" value="" style="endArrow=classic;html=1;rounded=0;exitX=0.5;exitY=1;exitDx=0;exitDy=0;" edge="1" parent="1" source="urYJuttuOxQp-yrirRFU-1">
          <mxGeometry width="50" height="50" relative="1" as="geometry">
            <mxPoint x="180" y="250" as="sourcePoint" />
            <mxPoint x="180" y="270" as="targetPoint" />
          </mxGeometry>
        </mxCell>
        <mxCell id="urYJuttuOxQp-yrirRFU-8" value="TAK" style="edgeStyle=orthogonalEdgeStyle;rounded=0;orthogonalLoop=1;jettySize=auto;html=1;" edge="1" parent="1" source="urYJuttuOxQp-yrirRFU-4" target="urYJuttuOxQp-yrirRFU-7">
          <mxGeometry relative="1" as="geometry" />
        </mxCell>
        <mxCell id="urYJuttuOxQp-yrirRFU-12" value="NIE" style="edgeStyle=orthogonalEdgeStyle;rounded=0;orthogonalLoop=1;jettySize=auto;html=1;" edge="1" parent="1" source="urYJuttuOxQp-yrirRFU-4" target="urYJuttuOxQp-yrirRFU-11">
          <mxGeometry relative="1" as="geometry" />
        </mxCell>
        <mxCell id="urYJuttuOxQp-yrirRFU-4" value="a !=0" style="rhombus;whiteSpace=wrap;html=1;" vertex="1" parent="1">
          <mxGeometry x="140" y="400" width="80" height="80" as="geometry" />
        </mxCell>
        <mxCell id="urYJuttuOxQp-yrirRFU-10" value="" style="edgeStyle=orthogonalEdgeStyle;rounded=0;orthogonalLoop=1;jettySize=auto;html=1;" edge="1" parent="1" source="urYJuttuOxQp-yrirRFU-7" target="urYJuttuOxQp-yrirRFU-9">
          <mxGeometry relative="1" as="geometry" />
        </mxCell>
        <mxCell id="urYJuttuOxQp-yrirRFU-7" value="x = -b/a" style="whiteSpace=wrap;html=1;" vertex="1" parent="1">
          <mxGeometry x="280" y="410" width="120" height="60" as="geometry" />
        </mxCell>
        <mxCell id="urYJuttuOxQp-yrirRFU-9" value="wypisz x" style="shape=parallelogram;perimeter=parallelogramPerimeter;whiteSpace=wrap;html=1;fixedSize=1;" vertex="1" parent="1">
          <mxGeometry x="480" y="390" width="160" height="100" as="geometry" />
        </mxCell>
        <mxCell id="urYJuttuOxQp-yrirRFU-14" value="TAK" style="edgeStyle=orthogonalEdgeStyle;rounded=0;orthogonalLoop=1;jettySize=auto;html=1;exitX=1;exitY=0.5;exitDx=0;exitDy=0;entryX=0;entryY=0.5;entryDx=0;entryDy=0;" edge="1" parent="1" source="urYJuttuOxQp-yrirRFU-11" target="urYJuttuOxQp-yrirRFU-13">
          <mxGeometry relative="1" as="geometry" />
        </mxCell>
        <mxCell id="urYJuttuOxQp-yrirRFU-16" value="NIE" style="edgeStyle=orthogonalEdgeStyle;rounded=0;orthogonalLoop=1;jettySize=auto;html=1;" edge="1" parent="1" source="urYJuttuOxQp-yrirRFU-11" target="urYJuttuOxQp-yrirRFU-15">
          <mxGeometry relative="1" as="geometry" />
        </mxCell>
        <mxCell id="urYJuttuOxQp-yrirRFU-11" value="b==0" style="rhombus;whiteSpace=wrap;html=1;" vertex="1" parent="1">
          <mxGeometry x="140" y="550" width="80" height="80" as="geometry" />
        </mxCell>
        <mxCell id="urYJuttuOxQp-yrirRFU-19" style="edgeStyle=orthogonalEdgeStyle;rounded=0;orthogonalLoop=1;jettySize=auto;html=1;exitX=1;exitY=0.5;exitDx=0;exitDy=0;entryX=0.5;entryY=0;entryDx=0;entryDy=0;" edge="1" parent="1" source="urYJuttuOxQp-yrirRFU-13" target="urYJuttuOxQp-yrirRFU-17">
          <mxGeometry relative="1" as="geometry" />
        </mxCell>
        <mxCell id="urYJuttuOxQp-yrirRFU-13" value="wypisz: Rownanie ma nieskonczenie wiele rozwiazan&lt;div&gt;&lt;br&gt;&lt;/div&gt;" style="shape=parallelogram;perimeter=parallelogramPerimeter;whiteSpace=wrap;html=1;fixedSize=1;" vertex="1" parent="1">
          <mxGeometry x="280" y="550" width="160" height="90" as="geometry" />
        </mxCell>
        <mxCell id="urYJuttuOxQp-yrirRFU-18" style="edgeStyle=orthogonalEdgeStyle;rounded=0;orthogonalLoop=1;jettySize=auto;html=1;exitX=1;exitY=0.5;exitDx=0;exitDy=0;" edge="1" parent="1" source="urYJuttuOxQp-yrirRFU-15" target="urYJuttuOxQp-yrirRFU-17">
          <mxGeometry relative="1" as="geometry" />
        </mxCell>
        <mxCell id="urYJuttuOxQp-yrirRFU-15" value="wypisz rownanie sprzeczne" style="shape=parallelogram;perimeter=parallelogramPerimeter;whiteSpace=wrap;html=1;fixedSize=1;" vertex="1" parent="1">
          <mxGeometry x="100" y="700" width="160" height="100" as="geometry" />
        </mxCell>
        <mxCell id="urYJuttuOxQp-yrirRFU-17" value="STOP" style="ellipse;whiteSpace=wrap;html=1;" vertex="1" parent="1">
          <mxGeometry x="470" y="730" width="120" height="80" as="geometry" />
        </mxCell>
        <mxCell id="urYJuttuOxQp-yrirRFU-20" style="edgeStyle=orthogonalEdgeStyle;rounded=0;orthogonalLoop=1;jettySize=auto;html=1;exitX=0.5;exitY=1;exitDx=0;exitDy=0;entryX=0.592;entryY=0.025;entryDx=0;entryDy=0;entryPerimeter=0;" edge="1" parent="1" source="urYJuttuOxQp-yrirRFU-9" target="urYJuttuOxQp-yrirRFU-17">
          <mxGeometry relative="1" as="geometry" />
        </mxCell>
      </root>
    </mxGraphModel>
  </diagram>
</mxfile>
